<?xml version="1.0" standalone="no"?><!DOCTYPE svg PUBLIC "-//W3C//DTD SVG 1.1//EN" "http://www.w3.org/Graphics/SVG/1.1/DTD/svg11.dtd"><svg width="100%" height="100%" viewBox="0 0 75 73" version="1.1" xmlns="http://www.w3.org/2000/svg" xmlns:xlink="http://www.w3.org/1999/xlink" xml:space="preserve" style="fill-rule:evenodd;clip-rule:evenodd;stroke-linejoin:round;stroke-miterlimit:1.41421;"><g id="Layer1"><path d="M73.5051,36.6187c0,-19.8833 -16.1167,-36 -36,-36c-19.88,0 -36,16.1167 -36,36c0,18.54 14.02,33.8033 32.0367,35.7767l0,-27.4467l-6.13342,0l0,-10.3267l6.13342,0c0,0 0,-6.90333 0,-8.44667c0,-1.55 -0.310059,-11.8867 12.9199,-11.8867c1.77332,0 5.80005,0 9.34009,0c0,4.49 0,9.34666 0,10.7533c-2.65344,0 -5.51343,0 -6.87012,0c-1.35999,0 -2.73328,1.42 -2.73328,2.47667c0,1.05333 0,7.06333 0,7.06333c0,0 8.48328,0 9.58667,0c-0.383301,5.41667 -1.17664,10.3667 -1.17664,10.3667l-8.46008,0l0,26.6167c15.7067,-3.87333 27.3567,-18.0467 27.3567,-34.9467Z" style="fill:#fff;fill-rule:nonzero;"/></g></svg>