<?xml version="1.0" encoding="UTF-8"?>
<svg width="80px" height="80px" viewBox="0 0 80 80" version="1.1" xmlns="http://www.w3.org/2000/svg" xmlns:xlink="http://www.w3.org/1999/xlink">
    <!-- Generator: Sketch 43.1 (39012) - http://www.bohemiancoding.com/sketch -->
    <title>Slice</title>
    <desc>Created with Sketch.</desc>
    <defs></defs>
    <g id="Page-1" stroke="none" stroke-width="1" fill="none" fill-rule="evenodd">
        <path d="M72.189,45.02525 C72.168,44.99025 72.146,44.95625 72.127,44.92025 C71.437,43.65325 70.584,42.50725 69.592,41.51425 L56.037,27.96125 C55.982,27.90425 55.93,27.85825 55.883,27.81625 C54.156,26.14125 52.056,24.91225 49.773,24.23425 C52.404,26.98825 54.146,30.42925 54.822,34.21425 C55.023,35.34925 55.127,36.50925 55.127,37.66325 C55.127,38.12325 55.107,38.60825 55.066,39.14425 L63.514,47.59325 C64.248,48.32725 64.793,49.25325 65.086,50.27025 C65.256,50.85425 65.34,51.46125 65.34,52.07625 C65.34,52.75825 65.236,53.43025 65.031,54.07525 C64.72,55.04725 64.211,55.89325 63.514,56.58925 L58.006,62.09725 C56.826,63.27625 55.228,63.92725 53.508,63.92725 C51.787,63.92725 50.189,63.27625 49.01,62.09725 L35.457,48.54425 C34.969,48.05625 34.564,47.48025 34.256,46.82925 C33.847,45.97425 33.633,45.01125 33.633,44.04825 C33.633,43.39825 33.728,42.75525 33.916,42.13825 C33.933,42.08325 33.953,42.02825 33.974,41.97425 L34.008,41.88425 C34.088,41.65725 34.162,41.47425 34.24,41.30625 C34.285,41.20825 34.334,41.11225 34.385,41.01725 C34.476,40.84325 34.58,40.67125 34.701,40.48725 L34.752,40.41125 C34.789,40.35725 34.824,40.30025 34.863,40.24725 C35.064,39.97425 35.258,39.74525 35.457,39.54825 L37.556,37.44825 C37.533,37.19825 37.476,36.97625 37.385,36.78625 C37.297,36.60125 37.189,36.44225 37.062,36.31625 L32.158,31.41125 L31.797,31.05025 L29.379,33.47025 C29.144,33.70425 28.91,33.95625 28.662,34.24325 C28.625,34.28425 28.59,34.32925 28.555,34.37225 L28.476,34.46825 C28.31,34.66525 28.152,34.86425 28,35.06725 C27.947,35.13625 27.898,35.20625 27.847,35.27425 L27.818,35.31625 C27.668,35.52625 27.523,35.73925 27.385,35.95625 L27.347,36.01325 C27.314,36.06425 27.281,36.11625 27.248,36.16725 C27.086,36.43325 26.93,36.70225 26.789,36.96625 L26.767,37.00525 L26.748,37.04225 C26.256,37.97825 25.861,38.97425 25.576,40.00725 C25.474,40.37425 25.394,40.71425 25.328,41.04225 C25.127,42.04425 25.025,43.05625 25.025,44.06225 C25.025,44.94625 25.105,45.83525 25.258,46.69825 C25.797,49.72625 27.222,52.46625 29.377,54.62225 L42.931,68.17525 C48.764,74.00725 58.252,74.00725 64.084,68.17525 L69.592,62.66725 C71.476,60.78125 72.822,58.39925 73.482,55.77425 C73.795,54.52525 73.955,53.28625 73.955,52.09125 C73.955,49.72825 73.386,47.36725 72.314,45.26525 C72.303,45.24025 72.289,45.21525 72.279,45.18925 C72.269,45.16925 72.261,45.14925 72.25,45.12925 C72.232,45.09225 72.211,45.06025 72.189,45.02525" id="Fill-923" fill="#000000"></path>
        <path d="M46.576,26.92725 L33.023,13.37225 C27.191,7.54225003 17.703,7.54225003 11.871,13.37425 L6.363,18.88225 C4.476,20.76725 3.133,23.15125 2.472,25.77425 C2.16,27.02325 2,28.26125 2,29.45825 C2,31.82125 2.568,34.18125 3.64,36.28425 C3.654,36.30825 3.666,36.33525 3.676,36.36025 C3.685,36.38025 3.693,36.40125 3.705,36.42125 C3.722,36.45425 3.742,36.48725 3.763,36.52225 C3.785,36.55825 3.806,36.59325 3.826,36.63025 C4.517,37.89825 5.371,39.04225 6.363,40.03425 L19.916,53.58725 C19.972,53.64625 20.023,53.69225 20.072,53.73325 C21.799,55.40725 23.896,56.63625 26.18,57.31425 C23.551,54.56025 21.808,51.12025 21.135,47.33525 C20.931,46.20425 20.828,45.04225 20.828,43.88625 C20.828,43.42925 20.847,42.94425 20.889,42.40525 L12.441,33.95625 C11.707,33.22225 11.162,32.29625 10.869,31.27825 C10.699,30.69425 10.613,30.08925 10.613,29.47425 C10.613,28.79225 10.719,28.11825 10.924,27.47425 C11.234,26.50125 11.744,25.65525 12.441,24.96025 L17.949,19.45225 C20.389,17.01325 24.508,17.01325 26.945,19.45225 L40.498,33.00525 C40.986,33.49325 41.39,34.06925 41.699,34.72025 C42.105,35.57525 42.322,36.53625 42.322,37.50125 C42.322,38.15125 42.226,38.79425 42.039,39.41125 C42.021,39.46825 42.002,39.52225 41.98,39.57925 L41.947,39.66525 C41.867,39.89225 41.793,40.07525 41.715,40.24325 C41.67,40.34125 41.619,40.43725 41.568,40.53225 C41.476,40.70825 41.371,40.88625 41.254,41.06225 L41.207,41.13225 C41.17,41.19125 41.133,41.24725 41.092,41.30225 C40.89,41.57525 40.697,41.80425 40.5,42.00125 L38.398,44.10125 C38.422,44.35125 38.478,44.57325 38.57,44.76525 C38.658,44.95025 38.765,45.10825 38.892,45.23325 L43.797,50.13825 L44.158,50.49925 L46.576,48.07925 C46.806,47.84925 47.041,47.59525 47.295,47.30625 C47.332,47.26325 47.369,47.21825 47.404,47.17325 L47.478,47.08325 C47.644,46.88425 47.803,46.68525 47.955,46.48025 C48.017,46.39925 48.076,46.31725 48.135,46.23325 C48.289,46.02325 48.431,45.81025 48.572,45.59325 L48.617,45.52225 L48.705,45.38125 C48.869,45.11725 49.023,44.84925 49.166,44.58225 L49.185,44.54625 L49.207,44.50625 C49.699,43.57325 50.094,42.57625 50.381,41.54225 C50.478,41.18625 50.558,40.84525 50.627,40.50525 C50.828,39.50525 50.93,38.49325 50.93,37.48725 C50.93,36.60125 50.849,35.71325 50.697,34.85025 C50.156,31.82325 48.732,29.08325 46.576,26.92725" id="Fill-924" fill="#000000"></path>
    </g>
</svg>