<?xml version="1.0" standalone="no"?><!DOCTYPE svg PUBLIC "-//W3C//DTD SVG 1.1//EN" "http://www.w3.org/Graphics/SVG/1.1/DTD/svg11.dtd"><svg width="100%" height="100%" viewBox="0 0 74 73" version="1.1" xmlns="http://www.w3.org/2000/svg" xmlns:xlink="http://www.w3.org/1999/xlink" xml:space="preserve" style="fill-rule:evenodd;clip-rule:evenodd;stroke-linejoin:round;stroke-miterlimit:1.41421;"><g id="Layer1"><path d="M48.8252,26.3554c-1.66003,0 -3.00671,1.34667 -3.00671,3.01c0,1.66 1.34668,3.00667 3.00671,3.00667c1.66333,0 3.01001,-1.34667 3.01001,-3.00667c0,-1.66333 -1.34668,-3.01 -3.01001,-3.01Z" style="fill:#fff;fill-rule:nonzero;"/><path d="M36.3585,0.74872c-19.88,0 -36,16.1167 -36,36c0,19.88 16.12,36 36,36c19.8833,0 36,-16.12 36,-36c0,-19.8833 -16.1167,-36 -36,-36ZM55.9119,36.7454c-0.690063,1.27667 -1.64343,2.39 -2.77673,3.28333c-1.71997,4.24333 -6.77661,12.4067 -20.2133,12.4067c-18.1534,0 -24.0734,-13.3733 -24.0734,-13.3733c0,0 8.2533,4.06667 17.0066,0.860001c-7.21326,-3.05333 -8.83667,-12.41 -5.16333,-8.88667c2.90002,2.77666 9.45667,2.96 13.8934,2.72c0.476562,-0.550003 0.946655,-1.14333 1.40662,-1.76667c-0.0032959,-0.0966644 -0.0133057,-0.186665 -0.0133057,-0.283333c0,-5.85667 4.74658,-10.6033 10.6033,-10.6033c5.60999,0 10.1901,4.36 10.5667,9.87333l6.72339,3.23l-7.95996,2.54Z" style="fill:#fff;fill-rule:nonzero;"/></g></svg>